<svg width="128" height="128" viewBox="0 0 128 128" fill="none" xmlns="http://www.w3.org/2000/svg">
<path d="M46.4137 62.6509C52.1085 53.9455 69.1428 46.9557 81.1429 64.1069C89.9848 75.7346 105.132 86.4917 105.132 86.4917C105.132 86.4917 116.482 94.6422 109.22 110.338C102.276 125.386 77.6375 118.519 75.5936 117.923L75.4592 117.877C75.4592 117.877 65.6822 114.986 54.3148 117.307C42.9699 119.639 33.1872 118.763 33.1872 118.763L32.9352 118.758C31.0985 118.707 19.608 117.806 16.1306 103.648C12.3508 88.2328 29.3738 79.7869 30.645 78.3564C31.9105 76.8902 40.7356 71.3819 46.4137 62.6509ZM51.9349 71.4989V81.8437H42.7515C42.7515 81.8437 33.568 82.5462 30.3594 92.0968C29.2395 98.4706 31.3505 102.228 31.7145 103.032C32.0897 103.831 35.0519 108.495 42.5051 109.864H59.7409V71.6109L51.9349 71.4989ZM72.0266 82.6531L63.9631 82.7753V102.915C63.9631 102.915 64.3214 107.93 72.0266 109.757H91.8551V82.7753H83.2988V103.032H75.1232C75.1232 103.032 72.5138 102.686 72.0266 100.756V82.6531ZM51.795 88.0037V103.582H44.8514C44.8514 103.582 40.0188 103.353 38.5461 98.2415C37.7846 95.976 38.6581 93.3593 39.0389 92.336C39.3917 91.3026 41.0156 88.92 44.3642 88.0088L51.795 88.0037ZM105.132 42.0022C116.813 42.0022 119.949 52.4895 119.949 55.9615C119.949 59.464 121.539 74.2735 107.019 74.5688C92.4878 74.8589 91.8775 65.5579 91.8775 58.8888C91.8775 51.8938 93.4286 42.0022 105.132 42.0022ZM20.5487 33.8618C29.0771 33.1746 35.3599 41.7527 36.0151 46.6553C36.407 49.8371 38.2157 64.4022 24.9557 67.0189C11.7181 69.6408 6.79034 55.5695 8.24625 48.9767C8.24625 48.9767 9.81416 34.7375 20.5487 33.8618ZM70.0891 26.312C70.8731 19.6429 79.5526 9.43055 86.5018 10.8967C93.423 12.3476 99.7562 20.7935 98.4683 28.0531C97.214 35.3229 90.9367 44.9193 81.1373 43.7433C71.349 42.5927 69.1372 34.4626 70.0891 26.312ZM49.5831 8C56.9019 8 62.8207 15.7331 62.8207 25.2989C62.8207 34.8647 56.9019 42.608 49.5831 42.608C42.2643 42.608 36.3286 34.8647 36.3286 25.2989C36.3286 15.728 42.2643 8 49.5831 8Z" fill="#2932E1"/>
</svg>
