<svg width="48" height="48" viewBox="0 0 48 48" fill="none" xmlns="http://www.w3.org/2000/svg">
<path d="M24.0079 2C24.1675 2.24994 24.3245 2.50175 24.4871 2.74958C25.9703 5.01005 27.4546 7.26983 28.9387 9.52983C30.0578 11.2338 31.1774 12.9371 32.296 14.6413C33.4511 16.4012 34.6045 18.1621 35.7597 19.9217C36.8784 21.6257 37.9991 23.3285 39.1177 25.0328C40.5305 27.1852 41.9413 29.3385 43.3541 31.491C44.8633 33.7904 46.3739 36.0892 47.8838 38.3884C47.9174 38.4396 47.9495 38.4916 47.9981 38.5677C47.9303 38.5677 47.8892 38.5677 47.8481 38.5677C46.483 38.5677 45.1177 38.567 43.7526 38.5693C43.6695 38.5693 43.6198 38.5461 43.5726 38.4742C42.5033 36.8407 41.4304 35.2095 40.3591 33.5771C39.0494 31.5819 37.7412 29.5857 36.4315 27.5904C35.4696 26.1251 34.5066 24.6604 33.5445 23.1951C32.6232 21.792 31.7032 20.388 30.7817 18.9852C29.7205 17.3697 28.658 15.755 27.5966 14.1396C26.4172 12.3444 25.2382 10.5486 24.059 8.75324C24.0398 8.72411 24.0191 8.69593 23.9851 8.6473C18.2386 17.4064 12.4996 26.154 6.74354 34.9276C6.82569 34.9276 6.8785 34.9276 6.93155 34.9276C14.9468 34.9276 22.9617 34.9281 30.977 34.9241C31.1387 34.9241 31.2326 34.9666 31.3236 35.1075C32.0501 36.2313 32.7871 37.3483 33.5205 38.4674C33.537 38.4925 33.5506 38.5195 33.5727 38.5585H0C0.0161952 38.5275 0.0288697 38.4979 0.0462385 38.4714C0.948006 37.0974 1.85024 35.7242 2.75201 34.3502C3.61083 33.0418 4.46847 31.7327 5.32728 30.4243C6.09597 29.2533 6.86559 28.083 7.63428 26.912C8.45037 25.6691 9.26553 24.4258 10.0814 23.1827C11.0498 21.7075 12.0187 20.2327 12.9869 18.7576C13.9079 17.3542 14.8282 15.9505 15.7495 14.5474C16.9069 12.7844 18.0649 11.0219 19.2218 9.25852C20.1792 7.79953 21.135 6.33961 22.0917 4.88015C22.6965 3.95745 23.3016 3.03475 23.9058 2.11158C23.9283 2.07705 23.9426 2.03735 23.9607 2C23.9764 2 23.9919 2 24.0076 2L24.0079 2Z" fill="black"/>
<path d="M24.9902 20.9413C25.0576 20.9413 25.0989 20.9413 25.1402 20.9413C26.4973 20.9413 27.8547 20.9425 29.2118 20.939C29.3071 20.9387 29.3582 20.9721 29.4075 21.0482C30.732 23.094 32.0581 25.139 33.385 27.1834C34.7501 29.287 36.1166 31.3896 37.4819 33.4929C38.5513 35.1403 39.6199 36.7879 40.6885 38.4355C40.7116 38.471 40.7327 38.5079 40.7637 38.5584C40.7184 38.5621 40.686 38.5673 40.6533 38.5673C39.2805 38.5678 37.9077 38.5668 36.5348 38.5694C36.4539 38.5694 36.4071 38.5422 36.3644 38.4764C35.0076 36.3815 33.6493 34.2876 32.2905 32.1939C31.1768 30.4775 30.0624 28.7617 28.9484 27.0455C27.8899 25.4146 26.832 23.7832 25.7737 22.1522C25.55 21.8076 25.3259 21.4635 25.1022 21.1189C25.0691 21.0677 25.0372 21.0158 24.9902 20.9411V20.9413Z" fill="black"/>
<path d="M43.7108 14.0488C45.1432 16.2306 46.5661 18.3978 47.9999 20.5817H39.4219C40.8536 18.4009 42.2776 16.2318 43.7108 14.0488Z" fill="black"/>
<path d="M15.9746 30.6652C17.4059 28.4808 18.8243 26.3162 20.2558 24.1313C21.6885 26.3136 23.1111 28.4804 24.5454 30.6652H15.9746Z" fill="black"/>
<path d="M39.7148 42.3061V42.2209C40.1317 42.1997 40.5431 42.1786 40.9696 42.157V44.188C41.0025 44.1532 41.014 44.1447 41.0208 44.1332C41.2395 43.7668 41.5764 43.6291 41.9843 43.6554C42.3849 43.6813 42.6654 43.9054 42.8243 44.261C42.9074 44.4468 42.9612 44.6552 42.9811 44.8579C43.0309 45.3599 43.0259 45.8612 42.7706 46.3211C42.4258 46.9427 41.5827 47.1611 40.9774 46.7907C40.9368 46.7658 40.883 46.7517 40.8354 46.751C40.611 46.7477 40.4037 46.8083 40.2127 46.9279C40.1819 46.9471 40.1279 46.9615 40.1026 46.9467C40.0803 46.9337 40.0749 46.8771 40.0763 46.8403C40.0803 46.727 40.0977 46.6143 40.0979 46.5013C40.0995 45.312 40.0991 44.1224 40.0988 42.9331C40.0988 42.8744 40.0981 42.8157 40.0939 42.7572C40.0718 42.4497 40.0136 42.3797 39.7148 42.3061ZM40.975 45.5387C40.975 45.887 40.9736 46.2354 40.9769 46.5837C40.9774 46.6251 40.9926 46.6805 41.0215 46.7052C41.2956 46.9382 41.6895 46.871 41.8686 46.5595C41.9186 46.4726 41.9601 46.3758 41.9824 46.2781C42.1242 45.6549 42.1228 45.0284 42.0009 44.4027C41.9819 44.3049 41.9397 44.2077 41.8895 44.121C41.7824 43.9364 41.5961 43.8727 41.3944 43.9371C41.1597 44.012 40.9767 44.2575 40.9755 44.5053C40.9738 44.8497 40.975 45.1943 40.975 45.5387Z" fill="black"/>
<path d="M0.64899 42.2211C1.06936 42.1995 1.47823 42.1783 1.89907 42.1567V44.1835C1.92818 44.1562 1.94062 44.149 1.94695 44.1379C2.16453 43.771 2.50041 43.6308 2.90881 43.6554C3.3043 43.6794 3.57938 43.899 3.75002 44.2455C3.93568 44.6225 3.94694 45.0301 3.92676 45.44C3.90892 45.8013 3.83475 46.1456 3.62116 46.448C3.25313 46.969 2.44431 47.1308 1.9087 46.7926C1.86856 46.7672 1.81504 46.7522 1.7674 46.7515C1.54325 46.7482 1.33529 46.8062 1.1447 46.9276C1.11372 46.9474 1.06044 46.9619 1.03322 46.9478C1.01115 46.9366 1.00482 46.8785 1.00599 46.8417C1.00951 46.7324 1.02688 46.6234 1.02711 46.5142C1.02876 45.3164 1.02876 44.1184 1.02711 42.9206C1.02711 42.8116 1.01937 42.701 1.00012 42.5939C0.97266 42.4403 0.881591 42.3442 0.718231 42.3235C0.635377 42.3132 0.636081 42.3071 0.64899 42.2209V42.2211ZM1.90259 45.5365C1.90259 45.8844 1.90165 46.2323 1.904 46.5802C1.90424 46.6197 1.91151 46.6714 1.93663 46.6962C2.16594 46.9246 2.60039 46.8814 2.76868 46.6039C2.84426 46.4797 2.90012 46.3359 2.93157 46.1936C3.04119 45.7003 3.04095 45.199 2.97946 44.7007C2.95505 44.503 2.89566 44.3028 2.81398 44.121C2.72996 43.9333 2.53327 43.8755 2.33446 43.9343C2.09553 44.0047 1.90471 44.2535 1.90306 44.5044C1.90072 44.8483 1.90259 45.1924 1.90236 45.5363L1.90259 45.5365Z" fill="black"/>
<path d="M14.2928 46.8698C14.2719 46.805 14.2721 46.7627 14.3564 46.7418C14.4629 46.7155 14.4871 46.6523 14.4343 46.5557C14.2315 46.1853 14.0264 45.816 13.8198 45.4477C13.7611 45.3432 13.6759 45.276 13.5332 45.2835C13.5332 45.4388 13.5332 45.5905 13.5332 45.7423C13.5332 45.9497 13.5304 46.1571 13.5351 46.3645C13.5414 46.6429 13.6043 46.7127 13.8883 46.7622C13.8902 46.7956 13.8926 46.8318 13.8949 46.8703H12.2759C12.274 46.8381 12.2721 46.8047 12.2705 46.7761C12.2836 46.7662 12.2892 46.7587 12.2961 46.7575C12.5883 46.7075 12.6533 46.6398 12.654 46.3403C12.6566 45.1625 12.6549 43.9845 12.6545 42.8067C12.6545 42.7715 12.6516 42.7362 12.6481 42.7012C12.6214 42.4327 12.551 42.3554 12.2777 42.3047C12.2749 42.2744 12.2719 42.2413 12.2695 42.214C12.6913 42.1926 13.106 42.1715 13.533 42.1497V45.139C13.6719 45.14 13.7841 45.1038 13.8747 45.0162C14.0576 44.8395 14.239 44.6615 14.4176 44.4808C14.4608 44.4371 14.4981 44.3843 14.5263 44.3296C14.6021 44.1827 14.5671 44.0352 14.4235 43.9547C14.3275 43.9009 14.2153 43.8755 14.0994 43.8332V43.7468H15.5058C15.5083 43.7785 15.5112 43.8109 15.5135 43.8391C15.502 43.8497 15.4973 43.8574 15.491 43.8591C15.1938 43.9399 14.9629 44.125 14.7486 44.3343C14.6394 44.4409 14.5383 44.5553 14.4298 44.6627C14.3845 44.7075 14.3723 44.7428 14.4089 44.8031C14.7467 45.3622 15.0776 45.9253 15.4194 46.482C15.4785 46.5783 15.5806 46.6476 15.6567 46.7347C15.6851 46.7672 15.6949 46.8155 15.7191 46.8698H14.2925H14.2928Z" fill="black"/>
<path d="M19.3362 45.2864C19.3585 45.1107 19.3681 44.9061 19.4122 44.709C19.5359 44.1565 19.8718 43.8083 20.4344 43.6921C20.7264 43.6317 21.0174 43.6352 21.3064 43.7038C21.8321 43.8286 22.1417 44.171 22.2621 44.6881C22.3527 45.0778 22.3543 45.4729 22.2769 45.8647C22.1457 46.5283 21.7124 46.9119 21.0378 46.9561C20.8447 46.9687 20.6449 46.9624 20.455 46.9274C19.8547 46.8168 19.4859 46.4219 19.3885 45.8041C19.3629 45.6422 19.3549 45.4778 19.3359 45.2861L19.3362 45.2864ZM21.4376 45.3221C21.4308 45.3207 21.4242 45.3192 21.4174 45.3178C21.4038 45.1031 21.3967 44.8877 21.3749 44.6737C21.3484 44.4113 21.2981 44.153 21.1315 43.9366C20.9627 43.7174 20.7062 43.7111 20.5534 43.9406C20.4602 44.0804 20.3853 44.245 20.3504 44.4088C20.2351 44.9497 20.2471 45.4975 20.3159 46.0442C20.3464 46.2875 20.4079 46.5222 20.5757 46.7125C20.7297 46.887 20.9475 46.8994 21.0925 46.7186C21.1876 46.6002 21.2737 46.4536 21.3031 46.3075C21.3681 45.9831 21.3948 45.6512 21.4373 45.3223L21.4376 45.3221Z" fill="black"/>
<path d="M39.5863 46.6114C39.6534 46.6652 39.6517 46.7105 39.579 46.7564C39.2811 46.9431 38.9636 46.9694 38.6336 46.8684C38.5063 46.8294 38.4474 46.7197 38.4047 46.6027C38.3899 46.5628 38.3822 46.5203 38.3672 46.463C38.3357 46.4998 38.3113 46.5271 38.2881 46.5555C38.016 46.8905 37.5236 47.0218 37.1187 46.8668C36.8293 46.7559 36.6643 46.4218 36.7167 46.0599C36.7549 45.7961 36.9091 45.6121 37.1361 45.5015C37.3739 45.3855 37.6266 45.3002 37.8731 45.2015C37.8984 45.1914 37.925 45.1841 37.9503 45.174C38.316 45.0322 38.3613 44.9671 38.3606 44.5797C38.3606 44.4625 38.3636 44.3446 38.3545 44.2279C38.3301 43.9147 38.1442 43.7552 37.8315 43.7759C37.6956 43.7848 37.5616 43.8046 37.4494 43.9126C37.5034 43.9464 37.5501 43.973 37.5938 44.004C37.7715 44.1301 37.8409 44.3726 37.7574 44.5687C37.675 44.762 37.4422 44.8715 37.2058 44.828C37.0091 44.7919 36.881 44.6302 36.8685 44.4057C36.8596 44.2438 36.9098 44.1092 37.0279 43.9941C37.2227 43.8041 37.4663 43.7277 37.7233 43.6845C38.0109 43.6359 38.2991 43.6357 38.5859 43.6972C38.9584 43.7771 39.1781 44.0073 39.2133 44.3866C39.2368 44.6392 39.2365 44.8943 39.2389 45.1484C39.2426 45.563 39.2398 45.9779 39.2398 46.3927C39.2398 46.4122 39.2398 46.4319 39.2398 46.4514C39.245 46.7143 39.3302 46.7613 39.5555 46.6255C39.5649 46.6199 39.5757 46.6166 39.5863 46.6121V46.6114ZM38.3589 45.0951C38.193 45.2105 38.0393 45.3145 37.8883 45.4226C37.6093 45.6222 37.4982 45.9624 37.6046 46.2844C37.659 46.4493 37.8107 46.5487 37.9843 46.533C38.1496 46.5179 38.3538 46.3791 38.3561 46.2574C38.3636 45.8715 38.3589 45.4853 38.3589 45.0951Z" fill="black"/>
<path d="M6.89729 43.9069C6.95644 43.9428 6.99634 43.9656 7.0346 43.9909C7.2226 44.1157 7.30029 44.3546 7.22049 44.5594C7.14374 44.7567 6.90245 44.8728 6.66258 44.8277C6.46166 44.7899 6.3382 44.6247 6.32694 44.3915C6.31356 44.1143 6.47833 43.948 6.69685 43.842C7.17449 43.6106 7.67771 43.586 8.18211 43.7401C8.45344 43.823 8.62267 44.0217 8.65999 44.3095C8.68346 44.4913 8.6959 44.6757 8.69754 44.8592C8.70247 45.368 8.69918 45.877 8.69918 46.386C8.69918 46.3978 8.6966 46.4102 8.69965 46.4213C8.72265 46.5082 8.72172 46.6378 8.77734 46.6703C8.83978 46.7067 8.95338 46.6552 9.07848 46.6374C9.1158 46.6651 9.11063 46.7109 9.03318 46.7591C8.73838 46.9427 8.42293 46.9709 8.09808 46.8692C7.91289 46.8112 7.86806 46.639 7.82722 46.4647C7.81291 46.4781 7.80023 46.4863 7.79202 46.4978C7.55965 46.8279 7.23316 46.9451 6.8426 46.9202C6.51729 46.8995 6.31004 46.7553 6.21381 46.4786C6.10537 46.1671 6.16663 45.8211 6.40604 45.6411C6.58395 45.5075 6.79519 45.4145 6.99962 45.3205C7.19068 45.2324 7.39441 45.172 7.58829 45.0894C7.75094 45.0201 7.83403 44.8965 7.82042 44.7088C7.80845 44.5451 7.8237 44.3795 7.81126 44.216C7.79695 44.025 7.72019 43.8596 7.52069 43.8021C7.30663 43.7403 7.10055 43.7701 6.89659 43.9066L6.89729 43.9069ZM7.8183 45.0941C7.64673 45.2139 7.48572 45.3214 7.32987 45.4363C7.06253 45.6334 6.95738 45.9848 7.06746 46.2954C7.12473 46.457 7.28152 46.5528 7.4552 46.5321C7.6256 46.5119 7.81502 46.3703 7.81666 46.246C7.82159 45.8636 7.8183 45.4809 7.8183 45.0941Z" fill="black"/>
<path d="M19.0729 46.76V46.8704H17.2553C17.233 46.8004 17.237 46.7586 17.3301 46.7464C17.5437 46.7184 17.6217 46.6346 17.6252 46.4102C17.6327 45.9407 17.6299 45.4708 17.6308 45.001C17.6313 44.6682 17.6308 44.3356 17.6308 44.0027V43.8648H17.2285V43.7427H17.6198C17.6372 43.5334 17.6444 43.3344 17.6717 43.1383C17.7836 42.3351 18.6063 41.8881 19.3393 42.2273C19.5517 42.3255 19.6789 42.485 19.7047 42.7204C19.7291 42.9428 19.5935 43.1406 19.3841 43.1892C19.1564 43.2423 18.9203 43.1345 18.8426 42.9426C18.7572 42.7312 18.844 42.4794 19.0391 42.372C19.0752 42.352 19.1123 42.3335 19.152 42.3128C18.9985 42.1714 18.7255 42.2231 18.614 42.4129C18.5774 42.4754 18.5464 42.5503 18.5424 42.6212C18.5225 42.9879 18.5122 43.3551 18.4976 43.7415C18.7006 43.7415 18.8828 43.7438 19.0649 43.7403C19.1435 43.7389 19.1757 43.7647 19.1461 43.8599H18.5105V44.0006C18.5105 44.7325 18.5105 45.4647 18.5105 46.1967C18.5105 46.2279 18.5105 46.2594 18.5119 46.2907C18.522 46.5777 18.6328 46.7015 18.9175 46.7421C18.9673 46.7492 19.0175 46.7534 19.0731 46.7598L19.0729 46.76Z" fill="black"/>
<path d="M36.3881 46.8701H34.7576V46.7709C34.766 46.7648 34.7719 46.7576 34.7787 46.7564C35.0705 46.7089 35.1341 46.6394 35.1345 46.338C35.1364 45.164 35.1352 43.9899 35.135 42.8159C35.135 42.7846 35.1343 42.7532 35.1322 42.7219C35.1127 42.4464 35.0348 42.3576 34.7576 42.3035C34.7555 42.2723 34.7534 42.2387 34.752 42.2136C35.1707 42.1924 35.5821 42.1718 36.0081 42.1504C36.0093 42.1774 36.0138 42.226 36.0138 42.2744C36.0142 43.5894 36.0138 44.9044 36.0145 46.2194C36.0145 46.2936 36.0166 46.3683 36.0232 46.4421C36.0412 46.6417 36.1126 46.7153 36.3133 46.7477C36.3748 46.7576 36.3998 46.7982 36.3884 46.8696L36.3881 46.8701Z" fill="black"/>
<path d="M5.87618 46.8701H4.23976C4.20784 46.7878 4.23296 46.7554 4.32449 46.7451C4.50874 46.7247 4.57587 46.6549 4.60498 46.4703C4.6153 46.405 4.61718 46.3378 4.61718 46.2715C4.61789 45.1442 4.61765 44.0169 4.61765 42.8896C4.61765 42.8544 4.61765 42.8192 4.61624 42.7839C4.60545 42.4623 4.53996 42.3778 4.23507 42.2986V42.2138C4.6545 42.1927 5.06642 42.1718 5.49243 42.1501V42.28C5.49243 43.5953 5.49243 44.9105 5.49266 46.2257C5.49266 46.2882 5.49243 46.3512 5.49853 46.4134C5.52247 46.6493 5.57833 46.7131 5.81093 46.7481C5.8959 46.7608 5.88862 46.8052 5.87618 46.8703V46.8701Z" fill="black"/>
<path d="M28.1677 46.0316C28.01 46.4499 27.7638 46.7832 27.3176 46.9171C26.7503 47.0874 26.1102 46.8676 25.815 46.3989C25.7288 46.2625 25.6584 46.1063 25.6225 45.9496C25.5002 45.4152 25.5009 44.8819 25.7532 44.3797C26.0691 43.7506 26.9327 43.4608 27.5751 43.7539C27.9558 43.9278 28.1079 44.2515 28.1593 44.6405C28.1741 44.7523 28.178 44.8657 28.1884 44.993C28.1332 44.9966 28.0886 45.002 28.044 45.002C27.5631 45.0027 27.0819 45.0046 26.601 45.0003C26.5067 44.9994 26.471 45.0248 26.4698 45.1234C26.4663 45.4344 26.4698 45.7429 26.6163 46.0287C26.8752 46.534 27.4915 46.6223 27.8842 46.2096C27.9325 46.1589 27.9788 46.1041 28.0156 46.0449C28.0595 45.9749 28.1034 45.9829 28.1677 46.0313V46.0316ZM27.4105 44.8794C27.4218 44.5824 27.4004 44.2966 27.2904 44.0234C27.2422 43.9038 27.1744 43.7972 27.0287 43.7835C26.8791 43.7697 26.7738 43.8486 26.6954 43.9642C26.5092 44.2388 26.4912 44.5545 26.4675 44.8794H27.4103H27.4105Z" fill="black"/>
<path d="M11.3786 43.9267C11.1967 43.7475 10.8623 43.7456 10.6724 43.9474C10.5656 44.0611 10.4722 44.2023 10.4177 44.3479C10.244 44.8133 10.2234 45.2969 10.3285 45.7804C10.4001 46.109 10.5705 46.3751 10.9289 46.4414C11.2892 46.5081 11.5793 46.3712 11.7985 46.0803C11.815 46.0585 11.8253 46.0284 11.8467 46.0148C11.8711 45.9993 11.9063 45.9883 11.933 45.9941C11.9467 45.997 11.9652 46.0456 11.9584 46.0651C11.7939 46.525 11.4451 46.9333 10.8839 46.9622C10.0518 47.0049 9.48404 46.5403 9.38288 45.7134C9.35237 45.4637 9.35072 45.2034 9.38288 44.9542C9.49742 44.0667 10.191 43.5413 11.0768 43.6679C11.2695 43.6954 11.4662 43.7611 11.638 43.8528C11.8746 43.9789 11.9755 44.2023 11.949 44.4748C11.9288 44.682 11.7887 44.8377 11.5847 44.8819C11.3744 44.9272 11.1639 44.849 11.0691 44.6902C10.9655 44.5166 10.9841 44.2697 11.1259 44.1224C11.1974 44.0482 11.2897 43.9944 11.3784 43.927L11.3786 43.9267Z" fill="black"/>
<path d="M28.6819 46.9111V45.7288C28.7795 45.6872 28.8089 45.7133 28.8333 45.8058C28.8929 46.0311 28.9473 46.2627 29.0471 46.4711C29.1682 46.7246 29.3945 46.8444 29.6832 46.8223C29.8993 46.8058 30.0458 46.6616 30.0601 46.445C30.0735 46.243 30.0165 46.0628 29.8618 45.9268C29.6151 45.71 29.3614 45.5012 29.1147 45.2846C28.9056 45.1009 28.7302 44.894 28.695 44.6013C28.6518 44.2414 28.8074 43.9362 29.1375 43.7847C29.5733 43.5846 30.0101 43.5992 30.4347 43.8261C30.5967 43.9125 30.6328 43.8994 30.7004 43.726C30.7147 43.6894 30.7647 43.6666 30.7983 43.6375C30.8065 43.6459 30.8145 43.6546 30.8227 43.6631V44.7117C30.7267 44.7455 30.6882 44.7288 30.6699 44.6313C30.6241 44.3875 30.553 44.1514 30.3706 43.9675C30.211 43.8063 30.0143 43.7568 29.7991 43.7991C29.5041 43.8569 29.3865 44.1869 29.5745 44.4476C29.6573 44.5627 29.7716 44.6581 29.8817 44.7502C30.1573 44.9806 30.4594 45.1834 30.7133 45.4347C31.1593 45.8758 31.0224 46.5667 30.4528 46.8289C30.0524 47.0132 29.6444 47.0233 29.2386 46.8366C29.1783 46.8089 29.1187 46.7793 29.0584 46.7516C28.9145 46.6853 28.8809 46.6982 28.8171 46.8425C28.7923 46.8982 28.7472 46.9211 28.6816 46.9111H28.6819Z" fill="black"/>
<path d="M45.676 43.6651V44.713C45.5716 44.7499 45.541 44.7182 45.5234 44.6259C45.476 44.3783 45.4033 44.1382 45.2127 43.9557C45.0491 43.799 44.8508 43.7537 44.6369 43.8037C44.3515 43.8704 44.2459 44.1984 44.4325 44.453C44.5142 44.5646 44.6245 44.6578 44.7318 44.7473C45.0078 44.9773 45.3089 45.1805 45.5648 45.4307C46.0098 45.8657 45.884 46.5528 45.3228 46.8215C44.9256 47.0116 44.5172 47.0275 44.1093 46.8431C44.0417 46.8126 43.9748 46.7802 43.9072 46.7494C43.7706 46.6872 43.7305 46.6989 43.6758 46.8384C43.6476 46.9103 43.6138 46.9432 43.5368 46.9134V45.7266C43.6298 45.6926 43.6629 45.7095 43.6863 45.8002C43.7434 46.0222 43.7964 46.2498 43.8924 46.456C44.0128 46.7147 44.237 46.8429 44.5315 46.8229C44.7482 46.8084 44.8968 46.6679 44.9144 46.4513C44.9308 46.2495 44.8742 46.0682 44.721 45.9315C44.5109 45.744 44.2889 45.57 44.0814 45.3799C43.941 45.2512 43.7955 45.1194 43.6892 44.9637C43.3803 44.5117 43.5521 43.955 44.0609 43.7532C44.479 43.5874 44.8956 43.6104 45.2944 43.8286C45.4493 43.9134 45.4976 43.9005 45.5493 43.7307C45.5737 43.6508 45.6152 43.6459 45.676 43.6651Z" fill="black"/>
<path d="M24.6828 43.8532C24.5246 43.8511 24.403 43.8845 24.3011 43.9716C24.111 44.1344 23.9915 44.3428 23.9873 44.5925C23.9777 45.1678 23.9805 45.7433 23.9861 46.3186C23.9885 46.5706 24.0983 46.689 24.345 46.7357C24.4095 46.748 24.4755 46.7529 24.5454 46.7616V46.8701H22.7238C22.7217 46.8407 22.7191 46.8048 22.7168 46.774C22.7332 46.7642 22.7396 46.7576 22.7466 46.7564C23.0311 46.712 23.098 46.6481 23.1003 46.3608C23.106 45.6876 23.102 45.0144 23.1017 44.3411C23.1017 44.3216 23.0996 44.3021 23.0982 44.2826C23.0787 43.9951 23.0081 43.9131 22.7227 43.8544C22.7206 43.8229 22.7184 43.7891 22.717 43.7656C23.1386 43.7445 23.5538 43.7236 23.9791 43.7022V44.1946C24.0535 44.0954 24.1032 44.0188 24.1633 43.9514C24.3772 43.7111 24.6433 43.6038 24.9628 43.6688C25.2576 43.729 25.423 44.0435 25.3423 44.371C25.2756 44.6409 25.0043 44.7828 24.7128 44.7001C24.4368 44.6216 24.3415 44.2784 24.5281 44.0278C24.5694 43.9723 24.6198 43.9239 24.6832 43.8532H24.6828Z" fill="black"/>
<path d="M31.7063 43.8568H31.2031V43.74H31.6998V42.9667C32 42.9045 32.2835 42.8458 32.5755 42.7852V43.7323H33.2918V43.8558H32.5804C32.5804 43.9073 32.5804 43.9484 32.5804 43.9895C32.5804 44.749 32.5804 45.5084 32.5804 46.2678C32.5804 46.3031 32.5804 46.3385 32.5839 46.3733C32.6105 46.6348 32.8346 46.7402 33.044 46.5788C33.1336 46.5098 33.1963 46.4055 33.2832 46.3033C33.3416 46.3085 33.3686 46.3371 33.335 46.4215C33.1325 46.9319 32.4969 47.1396 32.0307 46.8448C31.8404 46.7243 31.7528 46.5413 31.731 46.3252C31.7157 46.1736 31.7078 46.0207 31.7073 45.8685C31.7047 45.246 31.7061 44.6237 31.7061 44.0013C31.7061 43.959 31.7061 43.9167 31.7061 43.8573L31.7063 43.8568Z" fill="black"/>
<path d="M46.8609 46.9654C46.5771 46.9661 46.3891 46.8312 46.3494 46.598C46.313 46.3852 46.3806 46.1984 46.5461 46.1087C46.7611 45.9919 46.9834 45.9926 47.1927 46.1239C47.3479 46.2212 47.4075 46.4204 47.3603 46.6262C47.3115 46.8399 47.1275 46.9647 46.8609 46.9656V46.9654Z" fill="black"/>
</svg>
