<svg width="48" height="48" viewBox="0 0 48 48" fill="none" xmlns="http://www.w3.org/2000/svg">
<g clip-path="url(#clip0_28116_22986)">
<mask id="mask0_28116_22986" style="mask-type:luminance" maskUnits="userSpaceOnUse" x="0" y="0" width="48" height="48">
<path d="M0 0H48V48H0V0Z" fill="white"/>
</mask>
<g mask="url(#mask0_28116_22986)">
<path d="M47.4959 8.964C46.9879 8.716 46.7679 9.19 46.4719 9.432C46.3699 9.51 46.2839 9.612 46.1979 9.704C45.4539 10.498 44.5859 11.018 43.4519 10.956C41.7939 10.864 40.3779 11.384 39.1259 12.652C38.8599 11.088 37.9759 10.156 36.6319 9.556C35.9279 9.244 35.2159 8.934 34.7219 8.256C34.3779 7.774 34.2839 7.236 34.1119 6.708C34.0019 6.388 33.8919 6.062 33.5259 6.008C33.1259 5.946 32.9699 6.28 32.8139 6.56C32.1879 7.704 31.9459 8.964 31.9699 10.24C32.0239 13.112 33.2359 15.4 35.6459 17.026C35.9199 17.212 35.9899 17.4 35.9039 17.672C35.7399 18.232 35.5439 18.776 35.3719 19.338C35.2619 19.696 35.0979 19.772 34.7139 19.618C33.4164 19.0604 32.2378 18.2593 31.2419 17.258C29.5279 15.602 27.9799 13.774 26.0479 12.342C25.6003 12.0112 25.1406 11.697 24.6699 11.4C22.6999 9.486 24.9299 7.914 25.4459 7.728C25.9859 7.532 25.6319 6.864 23.8879 6.872C22.1439 6.88 20.5479 7.462 18.5139 8.24C18.2116 8.35582 17.9007 8.44745 17.5839 8.514C15.6832 8.15587 13.7392 8.08709 11.8179 8.31C8.0479 8.73 5.0379 10.514 2.8239 13.556C0.163899 17.212 -0.462101 21.368 0.303899 25.7C1.1099 30.268 3.4419 34.05 7.0239 37.006C10.7399 40.072 15.0179 41.574 19.8999 41.286C22.8639 41.116 26.1659 40.718 29.8879 37.566C30.8279 38.034 31.8119 38.22 33.4479 38.36C34.7079 38.478 35.9199 38.3 36.8579 38.104C38.3279 37.792 38.2259 36.43 37.6959 36.182C33.3859 34.174 34.3319 34.992 33.4699 34.33C35.6619 31.738 38.9619 29.046 40.2539 20.324C40.3539 19.63 40.2679 19.194 40.2539 18.634C40.2459 18.294 40.3239 18.16 40.7139 18.122C41.796 18.0097 42.8457 17.687 43.8039 17.172C46.5959 15.646 47.7239 13.142 47.9899 10.138C48.0299 9.678 47.9819 9.206 47.4959 8.964ZM23.1619 36C18.9839 32.716 16.9579 31.634 16.1219 31.68C15.3379 31.728 15.4799 32.622 15.6519 33.206C15.8319 33.782 16.0659 34.178 16.3939 34.684C16.6219 35.018 16.7779 35.516 16.1679 35.89C14.8219 36.722 12.4839 35.61 12.3739 35.556C9.6519 33.952 7.3739 31.836 5.7719 28.942C4.2239 26.156 3.3239 23.168 3.1759 19.978C3.1359 19.206 3.3619 18.934 4.1299 18.794C5.13812 18.6011 6.17115 18.5747 7.1879 18.716C11.4519 19.34 15.0799 21.246 18.1239 24.264C19.8599 25.984 21.1739 28.038 22.5279 30.046C23.9679 32.178 25.5159 34.21 27.4879 35.874C28.1839 36.458 28.7379 36.902 29.2699 37.228C27.6659 37.408 24.9899 37.448 23.1619 36ZM25.1619 23.12C25.1616 23.0207 25.1854 22.9227 25.2314 22.8346C25.2773 22.7466 25.3441 22.671 25.4258 22.6145C25.5075 22.558 25.6017 22.5222 25.7004 22.5103C25.799 22.4984 25.8991 22.5106 25.9919 22.546C26.1102 22.5884 26.2124 22.6668 26.2841 22.77C26.3558 22.8733 26.3935 22.9963 26.3919 23.122C26.3922 23.2032 26.3763 23.2837 26.3451 23.3587C26.314 23.4337 26.2682 23.5018 26.2105 23.5589C26.1528 23.616 26.0843 23.6611 26.009 23.6915C25.9337 23.722 25.8531 23.7371 25.7719 23.736C25.6913 23.7363 25.6115 23.7205 25.537 23.6895C25.4626 23.6586 25.3951 23.6131 25.3385 23.5557C25.2819 23.4983 25.2373 23.4303 25.2073 23.3554C25.1773 23.2806 25.1606 23.2006 25.1619 23.12ZM31.3819 26.312C30.9819 26.474 30.5839 26.614 30.2019 26.632C29.6272 26.652 29.0633 26.4725 28.6059 26.124C28.0579 25.664 27.6659 25.408 27.5019 24.608C27.4454 24.217 27.4562 23.8193 27.5339 23.432C27.6739 22.778 27.5179 22.358 27.0559 21.978C26.6819 21.666 26.2039 21.58 25.6799 21.58C25.5005 21.5696 25.3262 21.5161 25.1719 21.424C24.9519 21.316 24.7719 21.044 24.9439 20.708C24.9999 20.6 25.2639 20.336 25.3279 20.288C26.0399 19.884 26.8619 20.016 27.6199 20.32C28.3239 20.608 28.8559 21.136 29.6219 21.884C30.4039 22.786 30.5459 23.036 30.9919 23.712C31.3439 24.242 31.6639 24.786 31.8819 25.408C32.0159 25.798 31.8439 26.116 31.3819 26.312Z" fill="#4D6BFE"/>
</g>
</g>
<defs>
<clipPath id="clip0_28116_22986">
<rect width="48" height="48" fill="white"/>
</clipPath>
</defs>
</svg>
