<svg width="48" height="48" viewBox="0 0 48 48" fill="none" xmlns="http://www.w3.org/2000/svg">
<g clip-path="url(#clip0_28142_19991)">
<path d="M48.0002 24.534C48.0002 22.56 47.8362 21.12 47.4842 19.626H24.4902V28.534H37.9862C37.7142 30.746 36.2462 34.08 32.9802 36.32L32.9342 36.618L40.2042 42.138L40.7082 42.186C45.3342 38 48.0002 31.84 48.0002 24.534Z" fill="#4285F4"/>
<path d="M24.4893 48.0001C31.1013 48.0001 36.6513 45.8661 40.7073 42.1861L32.9793 36.3201C30.9113 37.7341 28.1353 38.7201 24.4893 38.7201C21.4165 38.7203 18.4206 37.7586 15.922 35.9698C13.4235 34.1811 11.5475 31.6551 10.5573 28.7461L10.2693 28.7701L2.70933 34.5041L2.61133 34.7741C6.63933 42.6141 14.9113 48.0001 24.4893 48.0001Z" fill="#34A853"/>
<path d="M10.558 28.7461C10.0228 27.2207 9.74635 25.6166 9.74 24.0001C9.74 22.3461 10.04 20.7461 10.528 19.2541L10.514 18.9341L2.86 13.1101L2.61 13.2261C0.898055 16.5597 0.00344273 20.2526 0 24.0001C0 27.8661 0.952 31.5201 2.612 34.7741L10.558 28.7461Z" fill="#FBBC05"/>
<path d="M24.4893 9.28C29.0893 9.28 32.1893 11.226 33.9593 12.854L40.8693 6.24C36.6253 2.374 31.1013 0 24.4893 0C14.9093 0 6.63933 5.386 2.61133 13.226L10.5313 19.254C12.5173 13.466 18.0113 9.28 24.4893 9.28Z" fill="#EB4335"/>
</g>
<defs>
<clipPath id="clip0_28142_19991">
<rect width="48" height="48" fill="white"/>
</clipPath>
</defs>
</svg>
