<svg width="128" height="128" viewBox="0 0 128 128" fill="none" xmlns="http://www.w3.org/2000/svg">
<rect width="128" height="128" fill="white"/>
<path d="M49.7578 49.1732V42.5472C50.4174 42.5063 51.0769 42.4654 51.7365 42.4654C70.039 41.8927 82.0346 58.0897 82.0346 58.0897C82.0346 58.0897 69.0909 75.9228 55.1991 75.9228C53.3441 75.9228 51.5304 75.6365 49.799 75.0639V54.9403C56.9304 55.7992 58.3732 58.9078 62.6191 65.9837L72.1413 58.0488C72.1413 58.0488 65.1748 49.0096 53.4678 49.0096C52.2311 48.9687 50.9945 49.0505 49.7578 49.1732ZM49.7578 27.25V37.1482L51.7365 37.0255C77.1704 36.1665 93.7828 57.7216 93.7828 57.7216C93.7828 57.7216 74.7383 80.7083 54.9106 80.7083C53.1792 80.7083 51.4891 80.5447 49.799 80.2584V86.3936C51.2006 86.5572 52.6434 86.6799 54.0449 86.6799C72.5123 86.6799 85.8682 77.3134 98.8119 66.27C100.955 67.9879 109.736 72.1189 111.549 73.9186C99.2654 84.144 70.6161 92.3652 54.3747 92.3652C52.8082 92.3652 51.3243 92.2834 49.8403 92.1198V100.75H120V27.25L49.7578 27.25ZM49.7578 75.0639V80.2992C32.6919 77.2725 27.9514 59.644 27.9514 59.644C27.9514 59.644 36.1546 50.6457 49.7578 49.1732V54.8994H49.7166C42.5852 54.0405 36.979 60.6665 36.979 60.6665C36.979 60.6665 40.1531 71.8326 49.7578 75.0639ZM19.4597 58.9078C19.4597 58.9078 29.5591 44.1014 49.799 42.5472V37.1482C27.3743 38.9478 8 57.7625 8 57.7625C8 57.7625 18.965 89.2567 49.7578 92.1198V86.3936C27.1682 83.6123 19.4597 58.9078 19.4597 58.9078Z" fill="#76B900"/>
</svg>
