<svg width="128" height="128" viewBox="0 0 128 128" fill="none" xmlns="http://www.w3.org/2000/svg">
<path d="M64 120C94.9279 120 120 94.9279 120 64C120 33.0721 94.9279 8 64 8C33.0721 8 8 33.0721 8 64C8 94.9279 33.0721 120 64 120Z" fill="#0055E9"/>
<path fill-rule="evenodd" clip-rule="evenodd" d="M64 8C66.4173 8 68.7973 8.154 71.1307 8.448C77.9056 10.1709 83.8255 14.293 87.792 20.0492C91.7585 25.8055 93.5023 32.8052 92.6998 39.7495C91.8973 46.6939 88.603 53.1114 83.4282 57.8113C78.2533 62.5112 71.5493 65.1743 64.56 65.3067L64 65.3113C50.0467 65.3113 39.5373 75.48 38.0813 89.158C37.0407 98.8927 39.7287 109.747 48.544 117.839C25.136 111.133 8 89.5687 8 64C8 33.074 33.074 8 64 8Z" fill="#A8DFF5"/>
<path fill-rule="evenodd" clip-rule="evenodd" d="M32.668 31.3334C33.9128 32.16 34.9825 33.2237 35.8161 34.4638C36.6497 35.7039 37.2309 37.0961 37.5265 38.5608C37.822 40.0255 37.8261 41.5341 37.5386 43.0004C37.2511 44.4667 36.6775 45.8621 35.8507 47.1067C17.3613 74.948 20.8473 97.2407 48.208 117.741C24.968 110.928 8 89.4427 8 64C8 55.6607 9.82 47.7507 13.0867 40.6387C14.2673 38.6087 15.5367 36.5694 16.8993 34.5207C18.568 32.0073 21.1666 30.2596 24.1237 29.6619C27.0808 29.0642 30.1541 29.6654 32.668 31.3334Z" fill="#0055E9"/>
<path fill-rule="evenodd" clip-rule="evenodd" d="M68.5734 8.18667C69.8427 8.28467 71.1074 8.43401 72.3534 8.62067C75.074 9.11534 77.566 9.80601 79.5307 10.674C110.508 24.3333 117.191 57.5834 87.688 83.67C83.8634 87.0508 78.8525 88.7741 73.7574 88.4608C68.6623 88.1475 63.9003 85.8233 60.5187 81.9994C53.472 74.038 54.452 62.474 62.1847 54.83C66.1887 50.8727 76.6887 49.1227 81.0614 43.4387C86.9274 35.8133 90.964 15.3967 69.2874 8.41067L68.5734 8.18667Z" fill="#00BCFF"/>
<path fill-rule="evenodd" clip-rule="evenodd" d="M71.1307 8.44798C77.9593 10.1756 83.9208 14.3399 87.8929 20.1569C91.865 25.9738 93.5737 33.0422 92.6972 40.0312C91.8208 47.0202 88.4197 53.4478 83.1343 58.1038C77.8489 62.7599 71.0438 65.3233 64 65.3113C61.2952 65.3035 58.6048 65.7047 56.02 66.5013C56.706 62.278 58.7967 58.176 62.1847 54.83C66.1887 50.8726 76.6887 49.1226 81.0614 43.4386C86.988 35.734 91.048 14.9533 68.5734 8.18665C69.432 8.25198 70.286 8.34065 71.1307 8.44798Z" fill="#ECECEE"/>
</svg>
