<svg width="48" height="48" viewBox="0 0 48 48" fill="none" xmlns="http://www.w3.org/2000/svg">
<g clip-path="url(#clip0_28116_23002)">
<path d="M23.9821 47.0059C23.9171 47.0048 23.8524 47.0169 23.7922 47.0416C23.7319 47.0662 23.6773 47.1028 23.6317 47.1492C23.5861 47.1956 23.5503 47.2508 23.5267 47.3114C23.503 47.3721 23.4919 47.4369 23.4941 47.5019C23.4917 47.5671 23.5025 47.6322 23.5261 47.693C23.5496 47.7539 23.5853 47.8093 23.631 47.8559C23.6766 47.9026 23.7313 47.9394 23.7917 47.9641C23.8521 47.9889 23.9169 48.001 23.9821 47.9999C24.0475 48.0013 24.1126 47.9893 24.1732 47.9647C24.2338 47.9401 24.2887 47.9033 24.3346 47.8567C24.3805 47.81 24.4164 47.7545 24.44 47.6935C24.4637 47.6325 24.4746 47.5673 24.4721 47.5019C24.4761 47.3789 24.4327 47.259 24.3508 47.167C24.2689 47.0751 24.1548 47.0181 24.0321 47.0079L23.9821 47.0059ZM19.3421 10.7299C20.1987 11.0043 20.9114 11.6075 21.3235 12.4071C21.7357 13.2066 21.8136 14.137 21.5401 14.9939L21.3981 15.3379L21.3661 15.4179L21.3301 15.5259C21.1901 15.8459 21.1221 16.1659 21.1221 16.5219C21.0521 17.9419 22.0621 19.0799 23.4941 19.1499H24.2261C26.8441 19.2559 28.9021 21.4959 28.7981 24.1959C28.6941 26.8599 26.4941 28.9559 23.8421 28.8499H23.4941C22.0641 28.8859 20.9461 30.1299 21.0161 31.5859C21.0161 31.8339 21.0521 32.0459 21.1221 32.2599C21.5401 33.0059 22.2021 33.5759 23.0421 33.8599C24.5421 34.3199 26.0761 33.6099 26.8421 32.2959L26.8781 32.2259C27.6821 30.9459 29.2181 30.3059 30.7181 30.8039C32.4261 31.3719 33.4741 33.2559 32.9161 35.1379C32.7885 35.5556 32.5797 35.944 32.3017 36.281C32.0237 36.6179 31.682 36.8967 31.2962 37.1014C30.9104 37.3061 30.4879 37.4327 30.0531 37.474C29.6183 37.5153 29.1796 37.4704 28.7621 37.3419C28.0112 37.0919 27.3702 36.5894 26.9481 35.9199L26.9141 35.8499C26.5141 35.2039 25.9881 34.6899 25.2121 34.4279L25.1001 34.3919C24.3768 34.1492 23.5915 34.1653 22.8787 34.4374C22.1659 34.7095 21.5697 35.2209 21.1921 35.8839C20.9594 36.2698 20.6505 36.6043 20.2843 36.867C19.9181 37.1297 19.5023 37.3151 19.0621 37.4119C18.1956 37.5975 17.2909 37.4327 16.5455 36.9534C15.8002 36.4741 15.2748 35.7193 15.0841 34.8539C14.6661 33.0419 15.7481 31.1939 17.5981 30.7679C17.7927 30.7251 17.991 30.7017 18.1901 30.6979H18.2261C19.5861 30.5559 20.5281 29.4539 20.4581 28.0319C20.4414 27.5362 20.2839 27.0555 20.0041 26.6459C19.49 25.8027 19.2354 24.8268 19.2721 23.8399C19.2952 22.9835 19.548 22.1491 20.0041 21.4239C20.2841 21.0339 20.4241 20.5359 20.4581 20.0379C20.4941 18.6179 19.4461 17.5159 18.0861 17.3739L17.9461 17.3379C17.7423 17.3128 17.5419 17.2659 17.3481 17.1979L17.2481 17.1599C16.4199 16.8631 15.7389 16.2567 15.3484 15.4682C14.9579 14.6798 14.8883 13.7706 15.1541 12.9319C15.4207 12.0868 16.0104 11.3812 16.7948 10.9687C17.5792 10.5563 18.4948 10.4705 19.3421 10.7299ZM8.19213 30.9499C8.71213 30.4219 9.47013 30.2159 10.1801 30.4099C10.8901 30.6019 11.4461 31.1679 11.6361 31.8899C11.8261 32.6139 11.6221 33.3859 11.1021 33.9159C10.2981 34.7359 8.99613 34.7359 8.19213 33.9159C7.80583 33.5193 7.58966 32.9876 7.58966 32.4339C7.58966 31.8803 7.80583 31.3465 8.19213 30.9499ZM37.8821 30.3619C38.6001 30.1819 39.3581 30.4099 39.8661 30.9559C40.3741 31.5039 40.5541 32.2859 40.3401 33.0059C40.1261 33.7259 39.5481 34.2739 38.8281 34.4419C37.7261 34.6979 36.6281 34.0019 36.3681 32.8799C36.2405 32.3453 36.3276 31.782 36.6106 31.3108C36.8937 30.8397 37.3502 30.5003 37.8821 30.3619ZM37.7541 21.5819C38.3821 22.2219 38.7341 23.0879 38.7341 23.9939C38.7341 24.8979 38.3821 25.7659 37.7541 26.4059C37.1241 27.0459 36.2741 27.4059 35.3841 27.4059C34.4961 27.4059 33.6441 27.0459 33.0161 26.4059C32.3867 25.7608 32.0344 24.8952 32.0344 23.9939C32.0344 23.0926 32.3867 22.227 33.0161 21.5819C33.3243 21.2657 33.6927 21.0144 34.0996 20.8428C34.5065 20.6712 34.9436 20.5827 35.3851 20.5827C35.8267 20.5827 36.2638 20.6712 36.6707 20.8428C37.0775 21.0144 37.4459 21.2657 37.7541 21.5819ZM15.2681 21.9079C15.9961 22.8759 16.1621 24.1639 15.7041 25.2899C15.5411 25.7009 15.2979 26.0752 14.9887 26.3912C14.6795 26.7071 14.3104 26.9584 13.9031 27.1302C13.4957 27.302 13.0583 27.391 12.6162 27.392C12.1741 27.393 11.7362 27.3059 11.3281 27.1359C9.61813 26.4159 8.80813 24.4199 9.51413 22.6799C9.73506 22.13 10.0975 21.6484 10.5646 21.2838C11.0318 20.9192 11.5871 20.6846 12.1741 20.6039C13.3601 20.4439 14.5401 20.9419 15.2681 21.9079ZM38.3581 13.4659C39.0941 13.4659 39.7741 13.8659 40.1421 14.5139C40.5101 15.1619 40.5101 15.9619 40.1421 16.6099C39.9643 16.927 39.7053 17.1911 39.3919 17.3752C39.0784 17.5594 38.7217 17.6569 38.3581 17.6579C37.2221 17.6579 36.2981 16.7179 36.2981 15.5619C36.2981 14.4039 37.2221 13.4659 38.3581 13.4659ZM9.64213 13.4659C10.3781 13.4659 11.0561 13.8659 11.4241 14.5139C11.7921 15.1619 11.7921 15.9619 11.4241 16.6099C11.2464 16.9267 10.9878 17.1906 10.6747 17.3747C10.3617 17.5588 10.0053 17.6566 9.64213 17.6579C8.50413 17.6579 7.58213 16.7179 7.58213 15.5619C7.58213 14.4039 8.50413 13.4659 9.64213 13.4659ZM29.7041 10.5159C31.5541 10.5159 33.0541 12.0439 33.0541 13.9279C33.0541 15.8119 31.5541 17.3379 29.7041 17.3379C27.8541 17.3379 26.3561 15.8119 26.3561 13.9279C26.3561 12.0439 27.8561 10.5159 29.7041 10.5159ZM24.4521 9.14791C25.1761 8.98391 25.7581 8.43591 25.9741 7.71191C26.0808 7.35745 26.093 6.98125 26.0095 6.62061C25.9261 6.25998 25.7498 5.92742 25.4981 5.65591C25.2496 5.38798 24.9334 5.19196 24.5828 5.08849C24.2323 4.98502 23.8604 4.97791 23.5061 5.06791C22.4121 5.34791 21.7441 6.46791 22.0021 7.58191C22.2621 8.69791 23.3521 9.39591 24.4521 9.14791ZM24.4521 42.8999C25.1701 42.7259 25.7401 42.1799 25.9521 41.4599C26.0557 41.1082 26.0666 40.7356 25.9835 40.3785C25.9004 40.0214 25.7263 39.6918 25.4781 39.4219C25.233 39.1555 24.9212 38.9592 24.5749 38.8534C24.2286 38.7476 23.8604 38.736 23.5081 38.8199C23.1498 38.9024 22.8198 39.0786 22.552 39.3306C22.2842 39.5826 22.0882 39.9013 21.9841 40.2539C21.7681 40.9759 21.9501 41.7619 22.4621 42.3099C22.9521 42.8359 23.6741 43.0639 24.3681 42.9199L24.4541 42.8999H24.4521ZM34.3801 6.99991C34.5469 6.99914 34.7118 6.96532 34.8654 6.90043C35.019 6.83553 35.1582 6.74083 35.275 6.62181C35.3918 6.50279 35.4839 6.36181 35.5458 6.207C35.6078 6.0522 35.6385 5.88665 35.6361 5.71991C35.6361 5.00991 35.0781 4.43991 34.3801 4.43991C34.2134 4.44069 34.0484 4.4745 33.8948 4.5394C33.7412 4.6043 33.602 4.699 33.4852 4.81802C33.3684 4.93704 33.2764 5.07802 33.2144 5.23283C33.1524 5.38763 33.1217 5.55318 33.1241 5.71991C33.1241 6.42991 33.6841 6.99991 34.3801 6.99991ZM13.6201 6.99991C13.7869 6.99914 13.9518 6.96532 14.1054 6.90043C14.259 6.83553 14.3982 6.74083 14.515 6.62181C14.6318 6.50279 14.7239 6.36181 14.7858 6.207C14.8478 6.0522 14.8785 5.88665 14.8761 5.71991C14.8761 5.00991 14.3161 4.43991 13.6201 4.43991C13.4534 4.44069 13.2884 4.4745 13.1348 4.5394C12.9812 4.6043 12.842 4.699 12.7252 4.81802C12.6084 4.93704 12.5164 5.07802 12.4544 5.23283C12.3924 5.38763 12.3617 5.55318 12.3641 5.71991C12.3641 6.42991 12.9221 6.99991 13.6201 6.99991ZM3.25613 22.7039C3.08938 22.7047 2.92444 22.7385 2.77084 22.8034C2.61723 22.8683 2.47802 22.963 2.36123 23.082C2.24444 23.201 2.15239 23.342 2.09041 23.4968C2.02843 23.6516 1.99775 23.8172 2.00013 23.9839C2.00013 24.6919 2.56013 25.2619 3.25613 25.2619C3.58111 25.2606 3.89302 25.1338 4.1267 24.9079C4.36037 24.6821 4.49775 24.3747 4.51013 24.0499L4.51213 23.9819C4.51755 23.8144 4.48895 23.6475 4.42806 23.4913C4.36717 23.3352 4.27524 23.193 4.15785 23.0733C4.04045 22.9537 3.90002 22.8591 3.74503 22.7953C3.59005 22.7314 3.42373 22.6997 3.25613 22.7019V22.7039ZM13.6201 40.9639C13.4534 40.9647 13.2884 40.9985 13.1348 41.0634C12.9812 41.1283 12.842 41.223 12.7252 41.342C12.6084 41.461 12.5164 41.602 12.4544 41.7568C12.3924 41.9116 12.3617 42.0772 12.3641 42.2439C12.3641 42.9539 12.9221 43.5239 13.6201 43.5239C13.7869 43.5231 13.9518 43.4893 14.1054 43.4244C14.259 43.3595 14.3982 43.2648 14.515 43.1458C14.6318 43.0268 14.7239 42.8858 14.7858 42.731C14.8478 42.5762 14.8785 42.4106 14.8761 42.2439C14.8761 41.5339 14.3161 40.9639 13.6201 40.9639ZM34.3801 40.9999C34.2134 41.0007 34.0484 41.0345 33.8948 41.0994C33.7412 41.1643 33.602 41.259 33.4852 41.378C33.3684 41.497 33.2764 41.638 33.2144 41.7928C33.1524 41.9476 33.1217 42.1132 33.1241 42.2799C33.1241 42.9899 33.6841 43.5599 34.3801 43.5599C34.5469 43.5591 34.7118 43.5253 34.8654 43.4604C35.019 43.3955 35.1582 43.3008 35.275 43.1818C35.3918 43.0628 35.4839 42.9218 35.5458 42.767C35.6078 42.6122 35.6385 42.4466 35.6361 42.2799C35.6361 41.5699 35.0781 40.9999 34.3801 40.9999ZM44.7441 22.7039C44.5774 22.7047 44.4124 22.7385 44.2588 22.8034C44.1052 22.8683 43.966 22.963 43.8492 23.082C43.7324 23.201 43.6404 23.342 43.5784 23.4968C43.5164 23.6516 43.4857 23.8172 43.4881 23.9839C43.4881 24.6919 44.0461 25.2619 44.7441 25.2619C44.9109 25.2611 45.0758 25.2273 45.2294 25.1624C45.383 25.0975 45.5222 25.0028 45.639 24.8838C45.7558 24.7648 45.8479 24.6238 45.9098 24.469C45.9718 24.3142 46.0025 24.1486 46.0001 23.9819C46.0001 23.2719 45.4401 22.7019 44.7441 22.7019V22.7039ZM43.9761 12.7199C44.0414 12.721 44.1062 12.7089 44.1666 12.6841C44.2269 12.6594 44.2816 12.6225 44.3273 12.5759C44.373 12.5293 44.4087 12.4739 44.4322 12.413C44.4557 12.3522 44.4666 12.2871 44.4641 12.2219C44.4666 12.1567 44.4557 12.0917 44.4322 12.0308C44.4087 11.9699 44.373 11.9145 44.3273 11.8679C44.2816 11.8213 44.2269 11.7845 44.1666 11.7597C44.1062 11.735 44.0414 11.7228 43.9761 11.7239C43.9109 11.7228 43.8461 11.735 43.7857 11.7597C43.7253 11.7845 43.6706 11.8213 43.625 11.8679C43.5793 11.9145 43.5436 11.9699 43.5201 12.0308C43.4965 12.0917 43.4857 12.1567 43.4881 12.2219C43.4881 12.5059 43.7321 12.7199 43.9761 12.7199ZM23.9821 0.993915C24.0474 0.995311 24.1122 0.98339 24.1727 0.95888C24.2332 0.93437 24.288 0.897786 24.3339 0.851364C24.3797 0.804942 24.4156 0.749656 24.4394 0.688885C24.4632 0.628113 24.4743 0.563133 24.4721 0.497915C24.4746 0.432359 24.4636 0.366991 24.4399 0.305845C24.4161 0.2447 24.38 0.189076 24.3339 0.142408C24.2878 0.0957396 24.2326 0.0590177 24.1718 0.0345097C24.1109 0.0100016 24.0457 -0.00177241 23.9801 -8.53898e-05C23.9149 -0.0012193 23.8501 0.0109635 23.7897 0.0357184C23.7293 0.0604733 23.6746 0.0972805 23.629 0.14389C23.5833 0.190501 23.5476 0.245934 23.5241 0.306805C23.5005 0.367675 23.4897 0.432703 23.4921 0.497915C23.4921 0.763915 23.7081 0.969915 23.9381 0.991915L23.9801 0.993915H23.9821ZM4.02213 12.7199C4.08754 12.7213 4.15256 12.7093 4.21317 12.6847C4.27379 12.6601 4.32873 12.6233 4.37462 12.5767C4.42051 12.53 4.45638 12.4745 4.48003 12.4135C4.50367 12.3525 4.5146 12.2873 4.51213 12.2219C4.51459 12.1567 4.50372 12.0917 4.48019 12.0308C4.45667 11.9699 4.42098 11.9145 4.3753 11.8679C4.32963 11.8213 4.27493 11.7845 4.21455 11.7597C4.15417 11.735 4.08938 11.7228 4.02413 11.7239C3.95888 11.7228 3.89409 11.735 3.83371 11.7597C3.77332 11.7845 3.71863 11.8213 3.67295 11.8679C3.62728 11.9145 3.59159 11.9699 3.56806 12.0308C3.54454 12.0917 3.53367 12.1567 3.53613 12.2219C3.53367 12.2871 3.54454 12.3522 3.56806 12.413C3.59159 12.4739 3.62728 12.5293 3.67295 12.5759C3.71863 12.6225 3.77332 12.6594 3.83371 12.6841C3.89409 12.7089 3.95888 12.721 4.02413 12.7199H4.02213ZM4.02213 35.2459C3.95722 35.2451 3.89282 35.2574 3.83281 35.2822C3.7728 35.3069 3.71844 35.3436 3.67301 35.3899C3.62758 35.4363 3.59203 35.4914 3.5685 35.5519C3.54497 35.6124 3.53396 35.677 3.53613 35.7419C3.53367 35.8071 3.54454 35.8722 3.56806 35.933C3.59159 35.9939 3.62728 36.0493 3.67295 36.0959C3.71863 36.1426 3.77332 36.1794 3.83371 36.2041C3.89409 36.2289 3.95888 36.2411 4.02413 36.2399C4.08938 36.2411 4.15417 36.2289 4.21455 36.2041C4.27493 36.1794 4.32963 36.1426 4.3753 36.0959C4.42098 36.0493 4.45667 35.9939 4.48019 35.933C4.50372 35.8722 4.51459 35.8071 4.51213 35.7419C4.51014 35.6124 4.45833 35.4886 4.36746 35.3962C4.27658 35.3038 4.15363 35.25 4.02413 35.2459H4.02213ZM44.0121 35.2099C43.9469 35.2085 43.882 35.2204 43.8216 35.2449C43.7611 35.2695 43.7062 35.306 43.6604 35.3525C43.6145 35.3989 43.5786 35.4542 43.5548 35.5149C43.5311 35.5757 43.5199 35.6407 43.5221 35.7059C43.5194 35.7715 43.5301 35.8369 43.5536 35.8981C43.5771 35.9594 43.613 36.0151 43.6589 36.062C43.7048 36.1089 43.7598 36.1458 43.8206 36.1706C43.8814 36.1953 43.9465 36.2073 44.0121 36.2059C44.0776 36.2071 44.1425 36.1948 44.203 36.1699C44.2636 36.1451 44.3184 36.1081 44.3641 36.0613C44.4098 36.0144 44.4454 35.9588 44.4688 35.8976C44.4922 35.8365 44.5029 35.7713 44.5001 35.7059C44.4981 35.5764 44.4463 35.4526 44.3555 35.3602C44.2646 35.2678 44.1416 35.214 44.0121 35.2099Z" fill="#3859FF"/>
</g>
<defs>
<clipPath id="clip0_28116_23002">
<rect width="48" height="48" fill="white"/>
</clipPath>
</defs>
</svg>
